<svg viewBox="0 0 760 360" xmlns="http://www.w3.org/2000/svg" font-family="Inter, -apple-system, Segoe UI, Roboto, sans-serif"><rect x="0" y="0" width="760" height="360" rx="18" fill="#0E1118" stroke="#2A3040" stroke-width="1"/><text x="380.0" y="40" font-family="Inter, -apple-system, Segoe UI, Roboto, sans-serif" font-size="18" fill="#E9ECF3" text-anchor="middle" font-weight="700" letter-spacing="0">LNURL-pay: two round trips</text><text x="150" y="78" font-family="ui-monospace, 'JetBrains Mono', 'SF Mono', Menlo, monospace" font-size="13" fill="#9D8BFF" text-anchor="middle" font-weight="700" letter-spacing="1">WALLET</text><text x="610" y="78" font-family="ui-monospace, 'JetBrains Mono', 'SF Mono', Menlo, monospace" font-size="13" fill="#9D8BFF" text-anchor="middle" font-weight="700" letter-spacing="1">SERVER</text><line x1="150" y1="92" x2="150" y2="300" stroke="#2A3040" stroke-width="1" stroke-dasharray="3 5"/><line x1="610" y1="92" x2="610" y2="300" stroke="#2A3040" stroke-width="1" stroke-dasharray="3 5"/><line x1="150" y1="130" x2="604" y2="130" stroke="#9D8BFF" stroke-width="2"/><path d="M610 130 l-6 -4 l0 8 z" fill="#9D8BFF"/><text x="158" y="118" font-family="ui-monospace, 'JetBrains Mono', 'SF Mono', Menlo, monospace" font-size="13" fill="#E9ECF3" text-anchor="start" font-weight="500" letter-spacing="0">GET /lnurl/pay</text><line x1="610" y1="182" x2="156" y2="182" stroke="#9D8BFF" stroke-width="2"/><path d="M150 182 l6 -4 l0 8 z" fill="#9D8BFF"/><text x="602" y="170" font-family="ui-monospace, 'JetBrains Mono', 'SF Mono', Menlo, monospace" font-size="13" fill="#E9ECF3" text-anchor="end" font-weight="500" letter-spacing="0">payRequest { callback, min/max, metadata }</text><line x1="150" y1="234" x2="604" y2="234" stroke="#9D8BFF" stroke-width="2"/><path d="M610 234 l-6 -4 l0 8 z" fill="#9D8BFF"/><text x="158" y="222" font-family="ui-monospace, 'JetBrains Mono', 'SF Mono', Menlo, monospace" font-size="13" fill="#E9ECF3" text-anchor="start" font-weight="500" letter-spacing="0">GET /callback?amount=…</text><line x1="610" y1="286" x2="156" y2="286" stroke="#F7931A" stroke-width="2"/><path d="M150 286 l6 -4 l0 8 z" fill="#F7931A"/><text x="602" y="274" font-family="ui-monospace, 'JetBrains Mono', 'SF Mono', Menlo, monospace" font-size="13" fill="#F7931A" text-anchor="end" font-weight="500" letter-spacing="0">{ pr: bolt11 invoice }</text><text x="380.0" y="332" font-family="Inter, -apple-system, Segoe UI, Roboto, sans-serif" font-size="12.5" fill="#8B90A0" text-anchor="middle" font-weight="400" letter-spacing="0">The real Bitcoin invoice appears only in the last reply.</text></svg>